<?xml version="1.0" encoding="UTF-8" standalone="no"?>
<!-- Created with Inkscape (http://www.inkscape.org/) -->

<svg
   width="210mm"
   height="297mm"
   viewBox="0 0 210 297"
   version="1.1"
   id="svg1"
   inkscape:version="1.4 (86a8ad7, 2024-10-11)"
   sodipodi:docname="icone_livro2.svg"
   xmlns:inkscape="http://www.inkscape.org/namespaces/inkscape"
   xmlns:sodipodi="http://sodipodi.sourceforge.net/DTD/sodipodi-0.dtd"
   xmlns:xlink="http://www.w3.org/1999/xlink"
   xmlns="http://www.w3.org/2000/svg"
   xmlns:svg="http://www.w3.org/2000/svg">
  <sodipodi:namedview
     id="namedview1"
     pagecolor="#ffffff"
     bordercolor="#000000"
     borderopacity="0.25"
     inkscape:showpageshadow="2"
     inkscape:pageopacity="0.0"
     inkscape:pagecheckerboard="0"
     inkscape:deskcolor="#d1d1d1"
     inkscape:document-units="mm"
     inkscape:zoom="0.35355339"
     inkscape:cx="104.6518"
     inkscape:cy="507.70267"
     inkscape:window-width="1366"
     inkscape:window-height="705"
     inkscape:window-x="-8"
     inkscape:window-y="-8"
     inkscape:window-maximized="1"
     inkscape:current-layer="layer1" />
  <defs
     id="defs1">
    <linearGradient
       id="swatch5"
       inkscape:swatch="solid">
      <stop
         style="stop-color:#000000;stop-opacity:1;"
         offset="0"
         id="stop5" />
    </linearGradient>
    <linearGradient
       id="swatch2"
       inkscape:swatch="solid">
      <stop
         style="stop-color:#ffffff;stop-opacity:1;"
         offset="0"
         id="stop2" />
    </linearGradient>
    <linearGradient
       inkscape:collect="always"
       xlink:href="#swatch2"
       id="linearGradient5"
       x1="55.095242"
       y1="122.6584"
       x2="67.513268"
       y2="122.6584"
       gradientUnits="userSpaceOnUse"
       gradientTransform="matrix(0.99403339,0,0,1.0593834,0.36577861,-8.234598)" />
  </defs>
  <g
     inkscape:label="Camada 1"
     inkscape:groupmode="layer"
     id="layer1">
    <g
       id="g7"
       transform="translate(14.485604,-0.24763323)">
      <path
         id="rect6"
         style="fill:#000080;stroke-width:1.94051"
         d="m 76.543014,115.43355 12.913042,3.43944 v 72.93784 L 76.543014,188.1121 Z"
         sodipodi:nodetypes="ccccc" />
      <path
         id="rect3"
         style="fill:#000080;stroke-width:2.05235"
         d="m 44.564255,107.15182 38.666722,10.01441 c 3.352,0.86814 6.050543,4.35462 6.050543,7.81722 v 60.18161 c 0,3.46259 -2.698543,5.55127 -6.050543,4.68312 l -38.666722,-10.0144 c -3.352,-0.86814 -6.050542,-4.35463 -6.050542,-7.81722 v -60.18161 c 0,-3.4626 2.698542,-5.55127 6.050542,-4.68313 z"
         sodipodi:nodetypes="sssssssss" />
      <path
         id="rect6-2"
         style="fill:#000080;stroke-width:1.94051"
         d="m 104.48578,115.43355 -12.913056,3.43944 v 72.93784 l 12.913056,-3.69873 z"
         sodipodi:nodetypes="ccccc" />
      <path
         id="rect3-8"
         style="fill:#000080;stroke-width:2.05235"
         d="m 136.46454,107.15182 -38.666733,10.01441 c -3.352,0.86814 -6.050543,4.35462 -6.050543,7.81722 v 60.18161 c 0,3.46259 2.698543,5.55127 6.050543,4.68312 l 38.666733,-10.0144 c 3.352,-0.86814 6.05054,-4.35463 6.05054,-7.81722 v -60.18161 c 0,-3.4626 -2.69854,-5.55127 -6.05054,-4.68313 z"
         sodipodi:nodetypes="sssssssss" />
      <path
         id="rect5"
         style="fill:#000080;stroke:url(#linearGradient5);stroke-width:2;stroke-dasharray:none"
         d="m 55.13229,108.39603 c 0,-4.38515 12.343931,0.53959 12.343931,4.92474 0,4.58841 0,23.40896 0,23.40896 l -6.171965,-7.2022 -6.171966,2.27746 c 0,0 0,-17.27069 0,-23.40896 z"
         sodipodi:nodetypes="sscccs" />
      <rect
         style="fill:#ffffff;stroke-width:2.03032"
         id="rect4"
         width="40.804161"
         height="24.470814"
         x="101.60696"
         y="148.91878"
         ry="6.2501755"
         transform="matrix(0.9703571,-0.24167565,0,1,0,0)" />
    </g>
  </g>
</svg>
